<svg width="296" height="295" xmlns="http://www.w3.org/2000/svg"><g fill="#202B5A" fill-rule="nonzero"><path d="M243.4 142.3l14-24.1-24.2-14-14 24.2 24.2 14m-5.2-85.2V85h28V57h-28m-33 227.6l33-19-5.1-8.9-33 19 5.1 8.9m80.1-118.1h10.2v-38h-10.2v38m-28 66l8.8 5.1 19-33-8.8-5-19 32.9m-76.2 0v38h10.2v-38h-10.2m52.1 24.2l24.1-24.1-14-14-24 24.2 13.9 14"/><path d="M233.2 180.4l24.1-24.1-14-14-24 24.2 13.9 14m-14 24.1l-19-5-8.9 33 19 5 8.9-33m57.3-5.1l8.8-33-19-5.1-8.9 33 19 5M266.2 85l-8.8 33 19 5.1 8.9-33-19-5m-61.1-8.9l-5.1 19 33 9 5-19.1-32.9-8.9M96 67.4H68.1v28H96v-28m-71.2 46.9l24.2-14-14-24-24 13.9 14 24.1m213.2-85l-33-19-5 8.8 33 19 5-8.8M91 10.3l-33 19 5 8.9 33-19-5-9M167.2 0H129v10.2h38V0m66.2 48.4l-33 19 5.1 8.8 33-19-5.1-8.8M200.1 19l-33-8.7-5 19 33 8.8 5-19M134 57.2l-33-8.8-5 19 33 8.8 5-19m28 0l5.2 19 33-8.8-5.2-19-33 8.8m-33-46.9L96 19l5.1 19 33-8.8-5-19M63 48.4l-33 8.8 5 19 33-8.8-5-19m-5.1 85.1l19-5.1-8.8-33-19 5.1 8.8 33m46.9 99l14 24.1 24-13.9-13.9-24.1-24.1 13.9m76.3 38.1l-24.1-14-14 24.2 24.2 14 13.9-24.2M10.9 128.3H.7v38h10.2v-38m47 137.2l33 19 5-8.7-33-19-5 8.7m-47.1-60.9l19 33 9-5-19.1-33-8.9 5m47.1-71.1l-33-19-5.1 8.8 33 19 5-8.8m-19 60.9l-8.8-33-19 5 8.8 33 19-5M77 204.6l8.8 33 19-5-8.8-33-19 5m0-38.2l-24.2-24.1-14 14 24.2 24 14-13.9m-38.2 66.1L63 256.6l13.9-13.9-24.1-24.1-14 13.9m66 38.1l24.1 24.1 14-13.9-24.2-24.1-14 13.9"/><path d="M181.1 232.5l-14-14-24 24.2 13.9 14 24.1-24.2m52.1-52.1l-14 24.2 24.2 13.9 14-24.1-24.2-14m-22.8 57.2l-19 33 8.8 5 19-33-8.8-5m46.9-81.4l8.8 5 19-32.9-8.8-5-19 32.9M162 29.2h-28v28h28v-28m33 19.2h38.1V38.2h-38v10.2m-94-10.4H62.9v10.4h38V38.1h.2M77 204.6l-14-24.1-24.2 14 14 24 24.1-13.9m-38.1-48.4l-19-33-8.9 5.1 19 33 9-5.1M77 242.7l19 33 8.8-5-19-33-8.9 5"/></g></svg>