<svg xmlns="http://www.w3.org/2000/svg" viewBox="0 0 320.2 486.7" height="389.9" width="256.5">
  <path d="M255.4 142.3l14-24.1-24.2-14-14 24.2 24.2 14M250.2 57.2V85h28V57h-28M217.2 284.6l33-19-5.1-8.9-33 19 5.1 8.9M297.3 166.5h10.2v-38h-10.2v38M269.3 232.5l8.8 5.1 19-33-8.8-5-19 32.9M193.1 232.5v38h10.2v-38h-10.2M245.2 256.7l24.1-24.1-14-14-24 24.2 13.9 14" fill="#202b5a"/>
  <path d="M245.2 180.4l24.1-24.1-14-14-24 24.2 13.9 14M231.2 204.6l-19-5-8.9 33 19 5 8.9-33M288.5 199.5l8.8-33-19-5.1-8.9 33 19 5M278.2 85l-8.8 33 19 5.1 8.9-33-19-5M217.2 76.2l-5.1 19 33 9 5-19.1-32.9-8.9M108 67.4H80.1v28H108v-28M36.8 114.3l24.2-14-14-24L23 90.2l14 24.1M250.2 29.3l-33-19-5 8.8 33 19 5-8.8M103 10.3l-33 19 5 8.9 33-19-5-9M179.2 0H141v10.2h38V0M245.2 48.4l-33 19 5.1 8.8 33-19-5.1-8.8M212.1 19l-33-8.7-5 19 33 8.8 5-19M146 57.2l-33-8.8-5 19 33 8.8 5-19M174 57.2l5.2 19 33-8.8-5.2-19-33 8.8M141 10.3L108 19l5.1 19 33-8.8-5-19M75 48.4l-33 8.8 5 19 33-8.8-5-19M69.9 133.5l19-5.1-8.8-33-19 5.1 8.8 33M116.8 232.5l14 24.1 24-13.9-13.9-24.1-24.1 13.9M193.1 270.6l-24.1-14-14 24.2 24.2 14 13.9-24.2M22.9 128.3H12.7v38h10.2v-38M69.9 265.5l33 19 5-8.7-33-19-5 8.7M22.8 204.6l19 33 9-5-19.1-33-8.9 5M69.9 133.5l-33-19-5.1 8.8 33 19 5-8.8M50.8 194.4l-8.8-33-19 5 8.8 33 19-5M89 204.6l8.8 33 19-5-8.8-33-19 5M89 166.4l-24.2-24.1-14 14 24.2 24 14-13.9M50.8 232.5L75 256.6l13.9-13.9-24.1-24.1-14 13.9M116.8 270.6l24.1 24.1 14-13.9-24.2-24.1-14 13.9" fill="#202b5a"/>
  <path d="M193.1 232.5l-14-14-24 24.2 13.9 14 24.1-24.2M245.2 180.4l-14 24.2 24.2 13.9 14-24.1-24.2-14M222.4 237.6l-19 33 8.8 5 19-33-8.8-5M269.3 156.2l8.8 5 19-32.9-8.8-5-19 32.9M174 29.2h-28v28h28v-28M207 48.4h38.1V38.2h-38v10.2M113.1 38H74.9v10.4h38V38.1h.2M89 204.6l-14-24.1-24.2 14 14 24 24.1-13.9M50.8 156.2l-19-33-8.9 5.1 19 33 9-5.1M89 242.7l19 33 8.8-5-19-33-8.9 5" fill="#202b5a"/>
  <path d="M120.3 421.6a34 34 0 10-34 34l3-.1v-2.8-3c-1 .2-2 .2-3 .2a28.4 28.4 0 119-1.5c-.3 1.4-.5 2.7-.5 4.2v1.8a33.7 33.7 0 0025.5-32.8" fill="#3a7fca"/>
  <path d="M267.6 421.6a34 34 0 01-67.8 3c2 .3 4 .6 5.9 1.3a28.3 28.3 0 0056.3-4.3 28.4 28.4 0 00-56.6-1.8c-1.9-.5-3.7-.8-5.6-1a34 34 0 0167.8 2.8" fill="#ed1e4a"/>
  <path d="M196.8 424.4c14.2 0 26 10.5 28 24.1 1.9.7 3.9 1 5.9 1.3-1.5-17.4-16-31-33.9-31l-3 .1c.2.9.2 1.8.2 2.8 0 1 0 2-.2 3l3-.3m28.3 30.1a28.4 28.4 0 11-37-28.7l.1-4.3v-1.7a34 34 0 1042.4 35.6c-2-.1-3.8-.4-5.5-.9" fill="#2eaa46"/>
  <path d="M120.2 424.6l.1-3-.1-2.8h3a33.9 33.9 0 0133.8 31c-2-.3-4-.7-5.8-1.3a28.3 28.3 0 00-28-24.2l-3 .3m36.8 30.8a34 34 0 11-42.4-35.6v1.8c0 1.5-.1 2.8-.4 4.2a28.3 28.3 0 1037 28.8c2 .3 4 .7 5.8.8" fill="#f8a91d"/>
  <path d="M160 387.7a34 34 0 00-33.8 31.2c1.8.1 3.7.5 5.6 1a28.2 28.2 0 0156.5 1.9c0 12.5-8.2 23.2-19.6 26.8-.2 1.4-.3 2.8-.3 4.3v1.7a33.8 33.8 0 0025.4-32.8c.2-19-15.1-34.1-33.8-34.1m0 62.2c-14.2 0-26-10.5-28-24.2-1.8-.6-3.8-1-5.8-1.2 1.5 17.4 16 31 33.8 31 1 0 2 0 3-.2l-.1-2.7.1-3c-1 .3-2 .3-3 .3" fill="#211c1d"/>
  <path d="M17.4 364.7h-7V327H0v-6.6h27.8v6.6H17.4v37.6M106.7 364.7h-8.4l-10.6-19-4 5.5v13.5h-7v-44h7v19.7h.1l13.5-19.9h8l-12.9 19.2 14.3 25M130.6 364.7h-7.1v-19l-11.7-25.2h7.3l7.9 17.3h.2l7.9-17.3h7.3l-11.7 25.1v19h-.1M218.2 364.7h-24.7v-6.4h.1L210 337c.8-1 1.4-2.2 1.4-4.1 0-3.7-2.7-5.8-5.4-5.8-1.6 0-3 .5-4 1.5s-1.6 2.6-1.7 5v.4h-6.8v-.4c0-3.7 1.3-7.3 3.6-9.7 2.2-2.4 5-3.6 8.4-3.6a12 12 0 0112.6 12.8c0 3.1-.9 5.6-3 8.5l-12.5 16.1v.2h15.6v6.7M286.9 364.7H262v-6.4h.1l16.5-21.2c.7-1 1.3-2.2 1.3-4.1a5.6 5.6 0 00-9.3-4.3c-1 1-1.6 2.6-1.7 5v.4H262v-.4c0-3.7 1.4-7.3 3.6-9.7 2.3-2.4 5.1-3.6 8.5-3.6 3.8 0 6.8 1.2 9 3.6 2.4 2.4 3.6 5.5 3.6 9.2 0 3.1-1 5.6-3.2 8.5l-12.4 16.1.1.2H287v6.7M161.3 365c-8 0-13.8-5.6-13.8-13.5v-18.1c0-7.9 5.7-13.3 13.8-13.3 8.2 0 13.8 5.4 13.8 13.3v18.1c0 7.9-5.8 13.5-13.8 13.5m0-37.9c-4.1 0-7 3.2-7 7.4v16c0 4.5 2.8 7.6 7 7.6s7.1-3 7.1-7.7v-16c0-4.3-3-7.3-7.1-7.3M50 365c-8.2 0-13.9-5.6-13.9-13.5v-18.1c0-7.9 5.7-13.3 13.8-13.3 8.2 0 13.8 5.4 13.8 13.3v18.1c0 7.9-5.8 13.5-13.8 13.5m0-37.9c-4 0-7 3.2-7 7.4v16c0 4.5 2.8 7.6 7 7.6 4.3 0 7.1-3 7.1-7.7v-16c0-4.3-3-7.3-7-7.3M240.7 365c-4.6 0-12.3-2.8-12.3-12.8V333c0-7.7 5-12.8 12.3-12.8 7.3 0 12.3 5 12.3 12.8v19.2c0 10-7.7 12.8-12.3 12.8m0-37.9c-4.6 0-5.5 3.5-5.5 6.5v18c0 4.4 1.9 6.5 5.5 6.5 3.7 0 5.5-2 5.5-6.4v-18c0-3-.9-6.6-5.5-6.6M307.9 365c-4.6 0-12.3-2.8-12.3-12.8V333c0-7.7 5-12.8 12.3-12.8 7.3 0 12.3 5 12.3 12.8v19.2c0 10-7.7 12.8-12.3 12.8m0-37.9c-4.6 0-5.5 3.5-5.5 6.5v18c0 4.4 1.7 6.5 5.5 6.5 3.7 0 5.5-2 5.5-6.4v-18c0-3-1-6.6-5.5-6.6M267.5 255.7h3.2v8.2h1.1v-8.2h3.3v-.8h-7.5v.8h-.1M283 254.8l-2.7 6.5h-.1l-2.9-6.5h-1.2v9h.9v-7l2.4 5.7h1.2l2.3-5.8h.2v7.3h.8v-9h-1v-.2" fill="#202b5a"/>
</svg>
